<svg width="301" height="300" viewBox="0 0 301 300" fill="none" xmlns="http://www.w3.org/2000/svg">
<path d="M126.463 31.4227L39.5861 63.3274C22.7658 69.5044 14.1378 88.1474 20.3149 104.968C26.4919 121.788 45.1349 130.416 61.9551 124.239L148.832 92.3342C165.653 86.1571 174.281 67.5142 168.104 50.694C161.927 33.8737 143.284 25.2457 126.463 31.4227Z" fill="#FF9D43" stroke="#FFDFC1" stroke-width="16.092"/>
<path d="M129.237 38.9755L42.3597 70.8802C29.7108 75.5254 23.2225 89.545 27.8676 102.194C32.5128 114.843 46.5325 121.331 59.1814 116.686L146.059 84.7814C158.708 80.1362 165.196 66.1166 160.551 53.4676C155.906 40.8187 141.886 34.3304 129.237 38.9755Z" stroke="#001871" stroke-width="6.89655"/>
<path d="M53.7367 86.3142C54.4589 86.452 54.838 87.1187 54.6568 87.7225L53.3134 92.1113L57.2822 90.1165C57.874 89.8992 58.6397 90.1553 58.857 90.7471C59.1178 91.4573 58.6999 92.148 58.0646 92.247L53.7481 93.2949L57.5691 95.6528C58.2164 95.9523 58.284 96.8678 57.8226 97.4402L57.7042 97.4837C57.2428 98.0561 56.4457 98.0802 55.9916 97.5753L52.9002 94.2779L52.5591 98.8358C52.5398 99.5146 51.9165 100.012 51.1943 99.8744C50.5905 99.6932 50.0929 99.0699 50.3925 98.4226L51.7359 94.0339L47.8855 95.9852C47.2937 96.2025 46.528 95.9464 46.3107 95.3546C46.0934 94.7628 46.4678 93.9536 47.1031 93.8547L51.3013 92.8502L47.4368 90.374C46.9078 90.031 46.7219 89.159 47.2268 88.7049C47.6882 88.1325 48.4853 88.1084 48.9394 88.6133L52.1492 91.8672L52.3718 87.3528C52.3912 86.674 53.0145 86.1765 53.7367 86.3142Z" fill="#001871" stroke="#001871" stroke-width="1.14943"/>
<path d="M70.4249 80.1866C71.1471 80.3243 71.5263 80.991 71.345 81.5949L70.0016 85.9836L73.9704 83.9888C74.5622 83.7715 75.3279 84.0276 75.5452 84.6194C75.806 85.3296 75.3881 86.0204 74.7528 86.1193L70.4363 87.1672L74.2573 89.5251C74.9046 89.8247 74.9722 90.7401 74.5108 91.3125L74.3924 91.356C73.931 91.9284 73.1339 91.9525 72.6798 91.4476L69.5884 88.1502L69.2474 92.7082C69.228 93.3869 68.6047 93.8844 67.8825 93.7467C67.2787 93.5655 66.7812 92.9422 67.0808 92.2949L68.4242 87.9062L64.5737 89.8575C63.9819 90.0748 63.2163 89.8187 62.9989 89.2269C62.7816 88.6351 63.1561 87.8259 63.7913 87.727L67.9895 86.7226L64.125 84.2463C63.5961 83.9033 63.4102 83.0313 63.915 82.5772C64.3764 82.0048 65.1735 81.9808 65.6276 82.4856L68.8374 85.7396L69.0601 81.2251C69.0795 80.5463 69.7027 80.0488 70.4249 80.1866Z" fill="#001871" stroke="#001871" stroke-width="1.14943"/>
<path d="M87.1143 74.0567C87.8365 74.1944 88.2157 74.8611 88.0345 75.465L86.6911 79.8537L90.6598 77.8589C91.2516 77.6416 92.0173 77.8977 92.2347 78.4895C92.4955 79.1997 92.0775 79.8905 91.4422 79.9894L87.1257 81.0373L90.9467 83.3952C91.594 83.6948 91.6616 84.6102 91.2002 85.1827L91.0818 85.2261C90.6204 85.7985 89.8233 85.8226 89.3693 85.3177L86.2778 82.0204L85.9368 86.5783C85.9174 87.257 85.2942 87.7545 84.572 87.6168C83.9681 87.4356 83.4706 86.8123 83.7702 86.165L85.1136 81.7763L81.2631 83.7276C80.6713 83.9449 79.9057 83.6888 79.6883 83.097C79.471 82.5052 79.8455 81.6961 80.4807 81.5971L84.6789 80.5927L80.8144 78.1165C80.2855 77.7734 80.0996 76.9014 80.6044 76.4473C81.0658 75.8749 81.8629 75.8509 82.317 76.3557L85.5268 79.6097L85.7495 75.0952C85.7689 74.4165 86.3921 73.9189 87.1143 74.0567Z" fill="#001871" stroke="#001871" stroke-width="1.14943"/>
<path d="M103.803 67.9278C104.526 68.0655 104.905 68.7322 104.724 69.3361L103.38 73.7248L107.349 71.73C107.941 71.5127 108.706 71.7688 108.924 72.3606C109.185 73.0708 108.767 73.7616 108.131 73.8605L103.815 74.9084L107.636 77.2663C108.283 77.5659 108.351 78.4813 107.889 79.0538L107.771 79.0972C107.31 79.6696 106.512 79.6937 106.058 79.1888L102.967 75.8915L102.626 80.4494C102.607 81.1281 101.983 81.6256 101.261 81.4879C100.657 81.3067 100.16 80.6834 100.459 80.0361L101.803 75.6474L97.9523 77.5987C97.3605 77.816 96.5948 77.5599 96.3775 76.9681C96.1601 76.3763 96.5346 75.5672 97.1699 75.4682L101.368 74.4638L97.5035 71.9875C96.9746 71.6445 96.7887 70.7725 97.2935 70.3184C97.7549 69.746 98.5521 69.722 99.0061 70.2268L102.216 73.4808L102.439 68.9663C102.458 68.2876 103.081 67.79 103.803 67.9278Z" fill="#001871" stroke="#001871" stroke-width="1.14943"/>
<path d="M120.493 61.8001C121.215 61.9378 121.594 62.6045 121.413 63.2084L120.069 67.5971L124.038 65.6023C124.63 65.385 125.396 65.6411 125.613 66.2329C125.874 66.9431 125.456 67.6339 124.82 67.7329L120.504 68.7808L124.325 71.1386C124.972 71.4382 125.04 72.3536 124.578 72.9261L124.46 72.9695C123.999 73.5419 123.202 73.566 122.747 73.0611L119.656 69.7638L119.315 74.3217C119.296 75.0004 118.672 75.498 117.95 75.3602C117.346 75.179 116.849 74.5557 117.148 73.9084L118.492 69.5197L114.641 71.471C114.05 71.6883 113.284 71.4322 113.067 70.8404C112.849 70.2486 113.224 69.4395 113.859 69.3405L118.057 68.3361L114.193 65.8599C113.664 65.5168 113.478 64.6448 113.983 64.1908C114.444 63.6183 115.241 63.5943 115.695 64.0991L118.905 67.3531L119.128 62.8386C119.147 62.1599 119.77 61.6623 120.493 61.8001Z" fill="#001871" stroke="#001871" stroke-width="1.14943"/>
<path d="M137.063 55.7141C137.785 55.8519 138.164 56.5186 137.983 57.1224L136.639 61.5112L140.608 59.5164C141.2 59.2991 141.966 59.5552 142.183 60.147C142.444 60.8572 142.026 61.5479 141.391 61.6469L137.074 62.6948L140.895 65.0527C141.542 65.3522 141.61 66.2677 141.149 66.8401L141.03 66.8836C140.569 67.456 139.772 67.4801 139.318 66.9752L136.226 63.6778L135.885 68.2357C135.866 68.9145 135.243 69.412 134.52 69.2743C133.916 69.093 133.419 68.4698 133.719 67.8225L135.062 63.4338L131.212 65.3851C130.62 65.6024 129.854 65.3463 129.637 64.7545C129.419 64.1627 129.794 63.3535 130.429 63.2546L134.627 62.2501L130.763 59.7739C130.234 59.4309 130.048 58.5589 130.553 58.1048C131.014 57.5324 131.811 57.5083 132.265 58.0132L135.475 61.2671L135.698 56.7527C135.717 56.0739 136.34 55.5764 137.063 55.7141Z" fill="#001871" stroke="#001871" stroke-width="1.14943"/>
<mask id="path-9-outside-1_22_1672" maskUnits="userSpaceOnUse" x="33.9744" y="131.851" width="89.0956" height="82.6259" fill="black">
<rect fill="white" x="33.9744" y="131.851" width="89.0956" height="82.6259"/>
<path d="M54.6326 183.721L57.5005 172.59C60.3515 161.525 71.6329 154.866 82.6981 157.717C93.7633 160.568 100.422 171.849 97.5711 182.915L94.7031 194.045"/>
</mask>
<path d="M54.6326 183.721L57.5005 172.59C60.3515 161.525 71.6329 154.866 82.6981 157.717C93.7633 160.568 100.422 171.849 97.5711 182.915L94.7031 194.045" fill="#FF9D43"/>
<path d="M39.0496 179.706C36.8321 188.312 42.0112 197.086 50.6174 199.304C59.2237 201.521 67.9981 196.342 70.2156 187.736L39.0496 179.706ZM79.1201 190.03C76.9026 198.636 82.0818 207.411 90.688 209.628C99.2943 211.846 108.069 206.667 110.286 198.06L79.1201 190.03ZM70.2156 187.736L73.0835 176.605L41.9175 168.575L39.0496 179.706L70.2156 187.736ZM73.0835 176.605C73.7171 174.146 76.224 172.666 78.683 173.3L86.7132 142.134C67.0418 137.065 46.986 148.903 41.9175 168.575L73.0835 176.605ZM78.683 173.3C81.1419 173.934 82.6216 176.44 81.9881 178.899L113.154 186.93C118.223 167.258 106.385 147.203 86.7132 142.134L78.683 173.3ZM81.9881 178.899L79.1201 190.03L110.286 198.06L113.154 186.93L81.9881 178.899Z" fill="#FFDFC1" mask="url(#path-9-outside-1_22_1672)"/>
<path d="M37.8955 248.397L37.8956 248.397C44.2409 250.346 50.7195 252.18 57.8831 254.025C65.0466 255.871 71.6043 257.397 78.1016 258.756L78.1017 258.756C89.3562 261.111 100.513 254.829 104.748 244.408L104.748 244.408C106.691 239.627 108.661 234.426 110.092 228.872C111.523 223.317 112.312 217.811 112.921 212.687L112.921 212.687C114.249 201.518 107.517 190.626 96.5264 187.249L94.3237 194.417L96.5263 187.249C90.1809 185.299 83.7024 183.466 76.539 181.62C69.3756 179.774 62.8177 178.249 56.3201 176.889L56.3201 176.889C45.066 174.535 33.9086 180.817 29.6739 191.237C27.7308 196.019 25.761 201.22 24.3299 206.774C22.8988 212.328 22.1099 217.834 21.5006 222.959C20.1725 234.128 26.9049 245.02 37.8955 248.397ZM54.7844 184.23L54.7843 184.23L54.7844 184.23Z" fill="#FF9D43" stroke="#FFDFC1" stroke-width="15"/>
<path d="M54.6326 183.721L57.5005 172.59C60.3515 161.525 71.6329 154.866 82.6981 157.717C93.7633 160.568 100.422 171.849 97.5711 182.915L94.7031 194.045" fill="#FF9D43"/>
<path d="M54.6326 183.721L57.5005 172.59C60.3515 161.525 71.6329 154.866 82.6981 157.717C93.7633 160.568 100.422 171.849 97.5711 182.915L94.7031 194.045" stroke="#001871" stroke-width="6.89655" stroke-linecap="round" stroke-linejoin="round"/>
<path d="M28.9481 223.844C28.0332 231.539 32.6916 238.952 40.0984 241.228C46.3308 243.143 52.6988 244.945 59.7544 246.763C66.8099 248.581 73.2558 250.08 79.6376 251.415C87.2222 253.002 94.8826 248.763 97.8 241.585C99.7036 236.9 101.524 232.065 102.829 227C104.134 221.935 104.877 216.823 105.474 211.801C106.389 204.107 101.731 196.694 94.3235 194.418C88.0911 192.503 81.7232 190.701 74.6677 188.883C67.6121 187.065 61.1661 185.565 54.7843 184.23C47.1999 182.644 39.5394 186.882 36.622 194.061C34.7182 198.746 32.8977 203.581 31.5927 208.645C30.2877 213.71 29.5451 218.823 28.9481 223.844Z" fill="#FF9D43" stroke="#001871" stroke-width="6.89655"/>
<path d="M66.0639 222.275L68.3583 213.37" stroke="#001871" stroke-width="6.89655" stroke-linecap="round"/>
<circle cx="68.9319" cy="211.144" r="5.51084" transform="rotate(14.4486 68.9319 211.144)" fill="#001871"/>
<path d="M158.117 83.7425H146.163L145.53 83.7425C133.39 83.7422 123.379 83.7419 115.455 84.8072C107.137 85.9256 99.7903 88.3639 93.9079 94.2463C88.0255 100.129 85.5872 107.475 84.4688 115.794C83.4036 123.717 83.4038 133.728 83.4041 145.868L83.4041 146.501L83.4041 147.134C83.4038 159.274 83.4036 169.285 84.4688 177.209C85.5872 185.527 88.0255 192.874 93.908 198.756L100.247 192.417L93.908 198.756C99.7903 204.638 107.137 207.077 115.455 208.195C123.379 209.26 133.39 209.26 145.53 209.26L146.163 209.26H158.117L158.75 209.26C170.89 209.26 180.901 209.26 188.824 208.195C197.143 207.077 204.489 204.638 210.372 198.756C216.254 192.874 218.692 185.527 219.811 177.209C220.876 169.285 220.876 159.274 220.875 147.134V146.501V145.868C220.876 133.728 220.876 123.717 219.811 115.794C218.692 107.475 216.254 100.129 210.372 94.2463C204.489 88.3639 197.143 85.9255 188.824 84.8072C180.901 83.7419 170.89 83.7422 158.749 83.7425L158.117 83.7425Z" stroke="#FFDFC1" stroke-width="17.931"/>
<path d="M158.117 92.708H146.163C120.804 92.708 108.125 92.708 100.247 100.586C92.3697 108.464 92.3697 121.143 92.3697 146.501C92.3697 171.859 92.3697 184.539 100.247 192.417C108.125 200.294 120.804 200.294 146.163 200.294H158.117C183.475 200.294 196.154 200.294 204.032 192.417C211.91 184.539 211.91 171.859 211.91 146.501C211.91 121.143 211.91 108.464 204.032 100.586C196.154 92.708 183.475 92.708 158.117 92.708Z" fill="#FF9D43" stroke="#001871" stroke-width="8.96552"/>
<path d="M182.025 170.409C188.002 167.237 188.002 162.13 188.002 151.918V141.085C188.002 130.872 188.002 125.766 182.025 122.593" stroke="#001871" stroke-width="8.96552" stroke-linecap="round"/>
<path d="M137.197 158.455C143.867 158.455 149.274 153.104 149.274 146.501C149.274 139.899 143.867 134.547 137.197 134.547M137.197 158.455C130.527 158.455 125.119 153.104 125.119 146.501C125.119 139.899 130.527 134.547 137.197 134.547M137.197 158.455V170.409M137.197 134.547V122.593M126.737 152.478L116.278 158.455M158.116 134.547L147.656 140.524M147.657 152.478L158.117 158.455M116.278 134.547L126.738 140.524" stroke="#001871" stroke-width="8.96552" stroke-linecap="round" stroke-linejoin="round"/>
<path d="M250.679 152.013L250.679 152.013L250.47 151.92C247.892 150.776 245.648 149.779 243.81 149.086C242.02 148.411 239.703 147.651 237.197 147.651C234.692 147.651 232.374 148.411 230.585 149.086C228.746 149.779 226.502 150.776 223.924 151.92L223.715 152.013L223.715 152.013C219.948 153.685 215.247 155.51 209.937 157.02C209.82 157.053 209.705 157.086 209.589 157.119C205.686 158.228 202.23 159.21 199.543 160.252C196.831 161.304 193.571 162.886 191.256 165.952C189.052 168.869 188.347 172.116 188.049 174.934C187.771 177.555 187.772 180.75 187.772 184.2C187.772 184.324 187.772 184.447 187.772 184.571V197.919C187.772 213.46 194.812 225.663 202.999 234.533C211.131 243.342 220.735 249.262 226.977 252.557L226.977 252.557C227.122 252.633 227.267 252.71 227.415 252.789C229.886 254.101 232.89 255.697 237.197 255.697C241.505 255.697 244.508 254.101 246.979 252.789C247.127 252.71 247.273 252.633 247.417 252.557L247.417 252.557C253.659 249.262 263.263 243.342 271.395 234.533C279.583 225.663 286.622 213.46 286.622 197.919V184.571L286.623 184.2C286.623 180.75 286.623 177.555 286.345 174.934C286.047 172.116 285.342 168.869 283.139 165.952C280.824 162.887 277.564 161.304 274.851 160.252C272.165 159.21 268.708 158.228 264.805 157.118L264.458 157.02L262.276 164.694L264.458 157.02C259.147 155.51 254.446 153.685 250.679 152.013ZM226.977 159.361L226.98 159.367L226.977 159.361Z" fill="#FF9D43" stroke="#FFDFC1" stroke-width="16.092" stroke-linecap="round"/>
<path d="M278.577 197.919V184.571C278.577 177.031 278.577 173.261 276.719 170.801C274.861 168.342 270.66 167.147 262.258 164.759C256.518 163.127 251.457 161.161 247.415 159.367C241.902 156.92 239.147 155.697 237.197 155.697C235.248 155.697 232.492 156.92 226.98 159.367C222.937 161.161 217.877 163.127 212.137 164.759C203.735 167.147 199.534 168.342 197.676 170.801C195.818 173.261 195.818 177.031 195.818 184.571V197.919C195.818 223.782 219.095 239.299 230.733 245.441C233.524 246.914 234.92 247.651 237.197 247.651C239.475 247.651 240.87 246.914 243.662 245.441C255.299 239.299 278.577 223.782 278.577 197.919Z" fill="#FF9D43" stroke="#001871" stroke-width="6.89655" stroke-linecap="round"/>
<path d="M223.404 206.271C223.404 206.271 228.002 206.271 232.6 215.467C232.6 215.467 247.204 192.478 260.186 187.88" stroke="#001871" stroke-width="6.89655" stroke-linecap="round" stroke-linejoin="round"/>
</svg>
