<svg width="341" height="246" viewBox="0 0 341 246" fill="none" xmlns="http://www.w3.org/2000/svg">
<path fill-rule="evenodd" clip-rule="evenodd" d="M197.217 199.848C197.18 199.852 197.143 199.855 197.106 199.858L196.833 199.881C195.523 199.989 194.147 200.053 192.736 200.053H192.73C177.151 200.053 166.2 192.691 161.107 189.08C152.883 195.915 142.3 200.053 130.742 200.053H115.449C105.474 200.053 96.3374 196.481 89.2374 190.569C82.1374 196.481 73.0011 200.053 63.0261 200.053H47.7389C21.5033 200.053 0.179382 178.742 0.179382 152.493V96.7968C0.179382 68.7266 22.9918 45.944 51.0514 45.944C62.0975 45.944 72.6802 49.5097 81.5015 56.1182L89.2444 61.9247L96.971 56.131C105.782 49.5231 116.368 45.944 127.43 45.944C140.443 45.944 152.306 50.8495 161.283 58.8593C182.071 50.1862 191.912 46.2087 203.098 45.9495C203.256 45.9458 203.415 45.944 203.573 45.944H204C204.177 45.944 204.358 45.945 204.543 45.9473C209.078 44.56 213.737 43.8901 218.312 43.8901C235.551 43.8901 249.233 53.0043 254.742 57.1374L254.745 57.1397L254.754 57.1464C255.294 57.5518 255.827 57.9631 256.354 58.3795C256.884 57.9609 257.421 57.5473 257.964 57.1397C263.471 53.0077 277.155 43.8901 294.397 43.8901C305.303 43.8901 316.989 47.7309 326.106 56.3303C335.549 65.2371 340.821 77.9083 340.821 92.6695C340.821 94.7975 340.382 101.92 339.814 108.598C339.29 114.75 338.385 124.205 336.866 129.639C336.865 129.642 336.864 129.645 336.863 129.647L336.861 129.654C335.514 134.461 333.569 139.049 331.054 143.313C331.732 163.677 319.143 178.116 314.625 182.749C303.604 194.056 289.754 201.895 273.567 202.1C273.353 202.106 273.138 202.11 272.923 202.11C268.188 202.11 262.455 201.435 256.356 199.279C250.267 201.431 244.538 202.11 239.798 202.11C230.275 202.11 221.494 199.455 213.617 194.965C208.551 197.644 202.992 199.304 197.217 199.848Z" fill="#FFDFC1"/>
<path fill-rule="evenodd" clip-rule="evenodd" d="M273.332 191.852C273.196 191.857 273.06 191.86 272.923 191.86C268.272 191.86 262.443 191.043 256.357 188.223C250.278 191.038 244.452 191.86 239.798 191.86C230.304 191.86 221.539 188.546 213.655 182.791C208.619 186.685 202.624 189.044 196.256 189.644C196.18 189.651 196.103 189.657 196.026 189.663L195.989 189.666C194.934 189.753 193.841 189.803 192.736 189.803H192.73C179.791 189.803 170.824 183.417 166.28 180.18C166.188 180.115 166.098 180.051 166.009 179.988L165.998 179.98C165.172 179.391 164.641 179.015 164.189 178.715C162.619 177.694 161.178 176.742 159.827 175.84C152.993 184.341 142.509 189.803 130.742 189.803H115.449C104.368 189.803 94.6512 183.927 89.2374 175.127C83.8236 183.927 74.1066 189.803 63.0261 189.803H47.7389C27.1632 189.803 10.4307 173.08 10.4307 152.495V96.7985C10.4307 74.3959 28.6473 56.1969 51.0514 56.1969C59.8579 56.1969 68.2887 59.0304 75.3552 64.3242L89.2441 74.7396L103.122 64.3338L103.122 64.3332C110.181 59.0397 118.612 56.1969 127.43 56.1969C140.068 56.1969 151.351 61.9856 158.795 71.0206C159.835 70.5795 160.79 70.1767 161.656 69.8135L161.672 69.807C185.751 59.7589 193.93 56.4176 203.336 56.1996C203.415 56.1978 203.494 56.1969 203.573 56.1969H204C204.608 56.1969 205.284 56.2131 206.017 56.255C210.031 54.8306 214.214 54.1431 218.312 54.1431C232.132 54.1431 243.566 61.5695 248.593 65.3412L248.597 65.3445C251.331 67.3979 253.932 69.6667 256.353 71.9932C258.774 69.6664 261.378 67.3961 264.116 65.3412C269.143 61.5695 280.577 54.1431 294.397 54.1431C302.973 54.1431 312.055 57.1709 319.072 63.7894C326.252 70.5615 330.569 80.4307 330.569 92.6711C330.569 94.2975 330.172 100.998 329.599 107.73C329.049 114.193 328.196 122.581 326.992 126.886L326.991 126.889C325.6 131.851 323.446 136.498 320.591 140.678C322.564 158.203 311.606 171.163 307.286 175.594C297.544 185.588 286.1 191.724 273.332 191.852Z" fill="#FF9D43"/>
<g clip-path="url(#clip0_22_963)">
<path d="M272.92 181.609C268.389 181.609 262.381 180.574 256.355 176.473C250.335 180.568 244.327 181.609 239.795 181.609C230.368 181.609 221.275 177.179 212.762 168.445C208.499 164.075 199.329 152.614 202.993 138.04C199.568 134.064 197.045 129.353 195.586 124.128C193.811 117.785 192.388 94.9189 192.388 92.6711C192.388 73.242 205.827 64.3943 218.31 64.3943C228.706 64.3943 237.888 70.1274 242.437 73.5409C247.603 77.4207 252.403 82.3408 256.349 86.932C260.3 82.3408 265.095 77.4207 270.266 73.5409C274.815 70.1274 283.998 64.3943 294.394 64.3943C306.876 64.3943 320.315 73.242 320.315 92.6711C320.315 94.9189 318.892 117.779 317.117 124.122C315.652 129.347 313.135 134.064 309.71 138.034C313.381 152.608 304.204 164.069 299.942 168.439C291.429 177.173 282.336 181.603 272.92 181.603H272.914L272.92 181.609Z" fill="#001871"/>
<path d="M239.789 172.043C233.046 172.043 226.26 168.588 219.613 161.767C210.251 152.16 211.231 143.408 212.654 139.05C213.067 137.782 213.593 136.611 214.214 135.523C209.707 132.091 206.419 127.333 204.799 121.546C203.46 116.757 201.953 95.3672 201.953 92.677C201.953 78.8674 210.765 73.9653 218.309 73.9653C225.854 73.9653 233.1 78.4968 236.698 81.193C243.794 86.5195 250.867 94.7455 256.355 102.421C261.843 94.7455 268.915 86.5195 276.011 81.193C279.61 78.4908 286.778 73.9653 294.4 73.9653C302.022 73.9653 310.756 78.8674 310.756 92.677C310.756 95.3672 309.25 116.751 307.91 121.546C306.29 127.333 303.008 132.091 298.495 135.523C299.117 136.611 299.643 137.788 300.055 139.056C301.478 143.414 302.458 152.166 293.097 161.773C286.455 168.588 279.664 172.049 272.92 172.049C268.377 172.049 262.076 170.483 256.355 163.59C250.634 170.483 244.333 172.043 239.795 172.049L239.789 172.043Z" fill="white"/>
<path d="M230.954 88.7193C241.236 96.4379 252.295 112.088 256.355 120.487C260.415 112.089 271.474 96.4377 281.755 88.7193C289.174 83.1498 301.194 78.8405 301.194 92.553C301.194 95.2916 299.624 115.558 298.703 118.849C295.502 130.288 283.837 133.205 273.462 131.44C291.598 134.526 296.212 144.751 286.248 154.975C267.324 174.394 259.049 150.103 256.928 143.879C256.539 142.738 256.357 142.204 256.355 142.658C256.352 142.204 256.17 142.738 255.781 143.879C253.661 150.103 245.386 174.394 226.461 154.975C216.497 144.751 221.111 134.526 239.248 131.44C228.872 133.205 217.207 130.288 214.007 118.849C213.086 115.558 211.516 95.2913 211.516 92.553C211.516 78.8405 223.536 83.1498 230.954 88.7193H230.954Z" fill="#1185FE"/>
</g>
<g clip-path="url(#clip1_22_963)">
<path fill-rule="evenodd" clip-rule="evenodd" d="M192.727 179.552C183.08 179.552 176.382 174.788 171.948 171.634C171.131 171.052 170.447 170.565 169.81 170.145C165.719 167.483 162.529 165.309 159.447 163.2L159.399 163.164C156.906 161.464 154.347 159.722 151.26 157.68C147.841 155.439 145.084 152.916 143.006 150.129C142.225 150.189 141.444 150.225 140.669 150.225C140.423 150.225 140.182 150.225 139.942 150.219C135.563 150.117 129.556 148.819 121.608 146.254C121.194 146.122 120.749 145.984 120.316 145.846L120.076 145.773C117.259 144.902 114.063 143.905 110.957 142.157C102.788 137.538 98.3722 129.14 99.4355 120.225L99.4775 119.913C100.673 111.166 106.632 104.522 117.193 100.161C140.266 90.1409 157.249 82.776 165.617 79.2678C190.565 68.8574 196.578 66.6107 203.57 66.4485C203.72 66.4485 203.859 66.4485 203.997 66.4485C207.277 66.4485 213.614 67.1213 219.249 71.6267C219.327 71.6868 219.441 71.7829 219.555 71.879C223.58 75.231 226.175 79.7004 227.269 85.1489C227.539 86.5125 228.122 90.1108 227.677 94.1777C226.283 108.661 220.631 141.683 218.054 155.361C216.546 163.351 213.32 169.55 208.472 173.785C204.766 177.023 200.206 178.975 195.292 179.438C195.262 179.438 195.148 179.45 195.142 179.45C194.343 179.516 193.532 179.552 192.733 179.552H192.727Z" fill="#001871"/>
<path fill-rule="evenodd" clip-rule="evenodd" d="M192.727 169.94C186.155 169.94 181.368 166.534 177.523 163.801C176.682 163.2 175.883 162.635 175.09 162.113C171.029 159.47 167.87 157.313 164.818 155.228C162.313 153.516 159.718 151.75 156.552 149.66C154.774 148.494 149.596 145.1 148.268 139.147C145.709 140.126 143.192 140.607 140.669 140.607C140.507 140.607 140.345 140.607 140.182 140.607C136.776 140.529 131.514 139.351 124.558 137.105C124.017 136.931 123.464 136.762 122.93 136.594C120.335 135.789 117.89 135.032 115.685 133.783C110.885 131.074 108.38 126.43 108.987 121.36C108.993 121.306 108.999 121.252 109.005 121.198C110.05 113.557 117.872 110.271 120.935 109.015C144.021 98.9891 161.003 91.6243 169.329 88.1401C193.67 77.982 198.819 76.1738 203.787 76.0657C203.859 76.0657 203.931 76.0657 203.997 76.0657C206.015 76.0657 209.902 76.4621 213.248 79.1353C213.296 79.1774 213.35 79.2194 213.398 79.2555C216.864 82.145 217.603 85.8274 217.843 87.0348C218.144 88.5426 218.372 90.9335 218.114 93.1862C216.762 107.327 211.169 139.988 208.604 153.576C206.105 166.822 198.626 169.466 194.391 169.862C194.367 169.862 194.343 169.862 194.319 169.868C193.791 169.916 193.262 169.934 192.733 169.934L192.727 169.94Z" fill="white"/>
<path fill-rule="evenodd" clip-rule="evenodd" d="M124.667 118.353C148.853 107.85 164.954 100.87 173.04 97.4843C196.051 87.8789 200.888 86.2205 203.998 86.1514C204.689 86.1514 206.209 86.2896 207.246 87.1188C208.075 87.8098 208.282 88.7082 208.42 89.3992C208.558 90.0902 208.697 91.5414 208.558 92.6471C207.315 105.777 201.925 137.633 199.16 152.283C197.986 158.502 195.705 160.575 193.494 160.783C188.657 161.197 184.994 157.604 180.364 154.563C173.04 149.795 168.962 146.824 161.845 142.125C153.622 136.735 158.942 133.763 163.641 128.926C164.885 127.682 186.1 108.333 186.515 106.606C186.584 106.399 186.584 105.569 186.1 105.155C185.616 104.74 184.925 104.878 184.372 105.017C183.612 105.155 172.003 112.894 149.406 128.166C146.089 130.446 143.118 131.552 140.423 131.483C137.451 131.414 131.785 129.824 127.501 128.442C122.318 126.784 118.172 125.886 118.517 122.983C118.725 121.463 120.798 119.943 124.667 118.353Z" fill="#26A3E2"/>
</g>
<g clip-path="url(#clip2_22_963)">
<path d="M115.446 179.552C104.881 179.552 96.1542 171.518 95.0585 161.241C93.1877 161.792 91.2335 162.08 89.2345 162.08C87.2355 162.08 85.2814 161.798 83.4105 161.241C82.3149 171.518 73.5885 179.552 63.0233 179.552H47.7361C32.8204 179.552 20.6791 167.417 20.6791 152.495V96.7987C20.6791 80.0635 34.3005 66.4485 51.0485 66.4485C57.6157 66.4485 63.8946 68.55 69.2061 72.5288L89.241 87.5533L109.269 72.5352C114.574 68.5564 120.853 66.4485 127.427 66.4485C144.175 66.4485 157.796 80.0635 157.796 96.7987V152.495C157.796 167.411 145.661 179.552 130.739 179.552H115.452H115.446Z" fill="#001871"/>
<path d="M115.446 169.301C109.782 169.301 105.195 164.713 105.195 159.05V142.417L95.3853 149.772C93.5657 151.137 91.4001 151.822 89.2345 151.822C87.069 151.822 84.9098 151.137 83.0838 149.772L73.2746 142.417V159.05C73.2746 164.713 68.6871 169.301 63.0233 169.301H47.7361C38.4715 169.301 30.9304 161.76 30.9304 152.495V96.7986C30.9304 85.7144 39.9515 76.6997 51.0485 76.6997C55.3861 76.6997 59.5378 78.0964 63.0553 80.7297L89.2345 100.367L115.414 80.7361C118.931 78.0964 123.083 76.6997 127.421 76.6997C138.518 76.6997 147.539 85.7144 147.539 96.7986V152.495C147.539 161.76 139.998 169.301 130.733 169.301H115.446Z" fill="white"/>
<path d="M115.446 121.914L89.2345 141.571L63.0233 121.914V159.043H47.7361C44.1225 159.043 41.1816 156.115 41.1816 152.489V96.7984C41.1816 88.6935 50.4206 84.074 56.911 88.937L63.0297 93.5244L89.2409 113.181L121.571 88.937C128.048 84.074 137.294 88.6935 137.294 96.7984V152.495C137.294 156.109 134.366 159.049 130.739 159.049H115.452V121.921L115.446 121.914Z" fill="#001871"/>
<g clip-path="url(#clip3_22_963)">
<path d="M47.7215 158.972H63.0158V121.829L41.1668 105.442V152.417C41.1668 156.044 44.1055 158.972 47.7215 158.972Z" fill="#4285F4"/>
<path d="M115.453 158.972H130.748C134.375 158.972 137.302 156.033 137.302 152.417V105.442L115.453 121.829" fill="#34A853"/>
<path d="M115.453 93.4251V121.829L137.302 105.442V96.7024C137.302 88.5965 128.049 83.9754 121.571 88.8368" fill="#FBBC04"/>
<path d="M63.0157 121.829V93.4253L89.2345 113.089L115.453 93.4253V121.829L89.2345 141.493" fill="#EA4335"/>
<path d="M41.1668 96.7024V105.442L63.0158 121.829V93.4251L56.8981 88.8368C50.4089 83.9754 41.1668 88.5965 41.1668 96.7024Z" fill="#C5221F"/>
</g>
</g>
<defs>
<clipPath id="clip0_22_963">
<rect width="127.933" height="117.214" fill="white" transform="translate(192.388 64.3943)"/>
</clipPath>
<clipPath id="clip1_22_963">
<rect width="128.554" height="113.103" fill="white" transform="translate(99.2794 66.4485)"/>
</clipPath>
<clipPath id="clip2_22_963">
<rect width="137.111" height="113.104" fill="white" transform="translate(20.6791 66.4485)"/>
</clipPath>
<clipPath id="clip3_22_963">
<rect width="96.1355" height="72.1016" fill="white" transform="translate(41.1668 86.8706)"/>
</clipPath>
</defs>
</svg>
