<svg width="302" height="300" viewBox="0 0 302 300" fill="none" xmlns="http://www.w3.org/2000/svg">
<path d="M150.012 204.292C121.816 215.362 97.7462 229.207 81.4926 242.72C55.7034 261.105 49.348 289.257 85.3049 292.61C107.576 294.687 141.626 288.441 177.517 274.35C190.19 269.375 202.03 263.838 212.701 258.023" stroke="#FFDFC1" stroke-width="12" stroke-linecap="round"/>
<path d="M150.012 204.292C121.816 215.362 97.7462 229.207 81.4926 242.72C55.7034 261.105 49.348 289.257 85.3049 292.61C107.576 294.687 141.626 288.441 177.517 274.35C190.19 269.375 202.03 263.838 212.701 258.023" stroke="#001871" stroke-width="2" stroke-linecap="round"/>
<path d="M240.993 211.998L240.992 211.998C239.912 211.694 238.252 211.356 235.929 210.882C235.164 210.726 234.327 210.555 233.415 210.366C229.987 209.656 225.87 208.754 221.91 207.573C218.05 206.422 213.806 204.856 210.379 202.614C207.099 200.468 202.889 196.549 202.85 190.396C202.831 187.48 204.188 185.28 205.119 184.061C206.13 182.738 207.372 181.62 208.539 180.705C210.895 178.86 213.973 177.055 217.296 175.366C224.016 171.95 232.865 168.443 241.86 165.548C250.841 162.657 260.316 160.263 268.29 159.218C272.25 158.698 276.15 158.468 279.569 158.797C282.632 159.093 286.995 159.978 290.036 163.252C292.978 166.42 293.63 170.74 293.798 173.753C293.986 177.147 293.643 181.017 293.022 184.964C291.772 192.907 289.206 202.318 286.177 211.231C283.144 220.153 279.535 228.907 276.07 235.529C274.357 238.802 272.538 241.831 270.691 244.137C269.778 245.278 268.653 246.504 267.319 247.494C266.1 248.4 263.825 249.768 260.825 249.635L240.993 211.998ZM240.993 211.998C241.343 212.096 241.613 212.18 241.819 212.249C241.889 212.495 241.973 212.826 242.07 213.267L242.07 213.267M240.993 211.998L242.07 213.267M242.07 213.267L242.141 213.591M242.07 213.267L242.141 213.591M242.141 213.591C244.285 223.342 246.039 231.32 247.945 236.841M242.141 213.591L247.945 236.841M247.945 236.841C248.902 239.615 250.113 242.442 251.856 244.704M247.945 236.841L251.856 244.704M251.856 244.704C253.74 247.149 256.69 249.452 260.824 249.635L251.856 244.704Z" fill="#FF9D43" stroke="#FFDFC1" stroke-width="15"/>
<path d="M284.54 168.356C275.828 158.973 210.296 181.957 210.35 190.348C210.411 199.864 235.942 202.791 243.018 204.776C247.274 205.97 248.414 207.194 249.395 211.656C253.839 231.866 256.07 241.918 261.155 242.142C269.261 242.501 293.043 177.512 284.54 168.356Z" fill="#FF9D43" stroke="#001871" stroke-width="6"/>
<path d="M246.35 206.144L260.35 192.144" stroke="#001871" stroke-width="6" stroke-linecap="round" stroke-linejoin="round"/>
<path d="M62.7419 153.497L62.7416 153.497C57.7386 152.932 53.8709 150.726 50.3664 147.628C47.2032 144.831 43.9626 140.954 40.2921 136.562C40.1905 136.44 40.0885 136.318 39.9862 136.196C37.3932 133.094 34.882 129.956 32.4235 126.746L32.4235 126.746C32.3264 126.62 32.2296 126.493 32.1332 126.367C28.6526 121.824 25.5798 117.813 23.5446 114.114C21.2898 110.015 19.9844 105.758 20.5299 100.753C21.0797 95.7088 23.334 91.8003 26.4629 88.2575C29.3043 85.0403 33.2562 81.7118 37.7628 77.9162C37.8835 77.8145 38.0046 77.7125 38.1261 77.6102L42.6359 82.9638L38.1261 77.6102C44.154 72.5324 50.2461 67.6568 56.5214 62.8881C56.6479 62.792 56.774 62.6962 56.8997 62.6007C61.5907 59.0354 65.7042 55.909 69.4659 53.8417C73.6082 51.5652 77.9155 50.2222 82.9575 50.791L82.9578 50.791C87.9609 51.3556 91.8286 53.5622 95.333 56.6603C98.4965 59.457 101.737 63.3347 105.408 67.7269L105.713 68.0915C105.713 68.0917 105.713 68.0919 105.713 68.092C108.306 71.1939 110.817 74.3314 113.275 77.5414C113.276 77.5416 113.276 77.5418 113.276 77.542L113.565 77.9191C117.046 82.4632 120.119 86.4749 122.155 90.1743C124.41 94.2725 125.715 98.5296 125.17 103.535L125.17 103.535C124.62 108.579 122.365 112.488 119.236 116.03C116.395 119.247 112.444 122.575 107.937 126.371C107.816 126.473 107.695 126.575 107.573 126.678M62.7419 153.497L103.063 121.324M62.7419 153.497C67.7839 154.066 72.0913 152.723 76.2335 150.446C79.9948 148.379 84.108 145.253 88.7984 141.688C88.9245 141.592 89.0509 141.496 89.1778 141.4M62.7419 153.497L84.9425 135.826M107.573 126.678L103.063 121.324M107.573 126.678C107.573 126.678 107.573 126.678 107.573 126.677L103.063 121.324M107.573 126.678C101.545 131.756 95.4532 136.631 89.1778 141.4M103.063 121.324C97.1251 126.326 91.1246 131.129 84.9425 135.826M89.1778 141.4L84.9425 135.826M89.1778 141.4C89.1777 141.4 89.1777 141.4 89.1776 141.4L84.9425 135.826" fill="#FF9D43" stroke="#FFDFC1" stroke-width="14" stroke-linejoin="round"/>
<path d="M45.357 131.707C53.2232 141.117 57.1561 145.822 63.5267 146.541C69.8969 147.26 74.9121 143.449 84.9425 135.826C91.1246 131.129 97.1251 126.326 103.063 121.324C112.698 113.208 117.516 109.15 118.211 102.777C118.905 96.4034 115.176 91.535 107.718 81.7979C105.321 78.6669 102.872 75.607 100.342 72.5814C92.4762 63.1709 88.5431 58.4658 82.1729 57.7469C75.8023 57.0283 70.7872 60.8393 60.7567 68.4615C54.5747 73.1593 48.5741 77.9616 42.6359 82.9638C33.0009 91.0801 28.1833 95.1383 27.4887 101.511C26.7941 107.884 30.523 112.753 37.9808 122.49C40.3788 125.621 42.8277 128.681 45.357 131.707Z" fill="#FF9D43" stroke="#001871" stroke-width="6" stroke-linejoin="round"/>
<path d="M26.6234 108.4L58.0027 103.354C69.5711 101.494 72.9339 98.8028 77.284 87.9232L89.0833 58.4123" stroke="#001871" stroke-width="6" stroke-linejoin="round"/>
<rect x="86.0003" y="95.5737" width="134.4" height="134.4" rx="40.8" stroke="#FFDFC1" stroke-width="14.4"/>
<rect x="93.2003" y="102.774" width="120" height="120" rx="33.6" fill="#FF9D43" stroke="#001871" stroke-width="7.2"/>
<path fill-rule="evenodd" clip-rule="evenodd" d="M142.836 122.84H165.481V132.195H159.534V149.799L178.596 130.737L186.198 138.338L161.76 162.775L186.196 187.211L178.594 194.812L159.534 175.752V193.354H165.482V202.708H159.534V202.708H148.785V202.708H142.836V193.354H148.785V175.751L129.723 194.812L122.122 187.211L146.558 162.775L122.12 138.338L129.721 130.737L148.785 149.8V132.195H142.836V122.84ZM114.225 157.331H128.406L133.781 162.775L128.406 168.22H114.225V157.331ZM177.994 168.22H192.176V157.331H177.994L172.62 162.776L177.994 168.22Z" fill="#001871"/>
<path d="M223.721 224.749C209.921 234.157 192.293 243.215 172.406 250.604C163.652 253.857 155.018 256.58 146.68 258.769" stroke="#FFDFC1" stroke-width="12" stroke-linecap="round" stroke-linejoin="round"/>
<path d="M223.721 224.749C209.921 234.157 192.293 243.215 172.406 250.604C163.652 253.857 155.018 256.58 146.68 258.769" stroke="#001871" stroke-width="2" stroke-linecap="round"/>
<path fill-rule="evenodd" clip-rule="evenodd" d="M249.511 68.9728L249.511 68.9725C248.384 60.6004 243.576 53.3106 236.706 48.9349C236.554 31.3926 222.286 17.219 204.707 17.219C187.129 17.219 172.861 31.3926 172.709 48.9349C165.839 53.3104 161.031 60.5997 159.904 68.9721C159.291 73.5255 158.707 78.7256 158.707 84.219C158.707 89.7124 159.291 94.9125 159.904 99.4658C161.674 112.612 172.57 123.176 186.303 123.808L186.303 123.808C192.19 124.078 198.16 124.219 204.707 124.219C211.254 124.219 217.225 124.078 223.111 123.808L223.112 123.808C236.845 123.176 247.741 112.612 249.511 99.4655L249.511 99.4652C250.124 94.9129 250.707 89.7125 250.707 84.219C250.707 78.7254 250.124 73.5251 249.511 68.9728Z" fill="#FFDFC1"/>
<path fill-rule="evenodd" clip-rule="evenodd" d="M222.707 58.6284C229.333 59.0491 234.747 64.2381 235.636 70.8402C236.223 75.2002 236.707 79.6686 236.707 84.219C236.707 88.7694 236.223 93.2378 235.636 97.5978C234.737 104.279 229.203 109.513 222.469 109.823C216.802 110.083 211.046 110.219 204.707 110.219C198.369 110.219 192.612 110.083 186.946 109.823C180.212 109.513 174.678 104.279 173.779 97.5978C173.192 93.2378 172.707 88.7694 172.707 84.219C172.707 79.6686 173.192 75.2002 173.779 70.8402C174.667 64.2381 180.082 59.0491 186.707 58.6284V49.219C186.707 39.2779 194.766 31.219 204.707 31.219C214.649 31.219 222.707 39.2779 222.707 49.219V58.6284Z" fill="#FF9D43"/>
<path d="M204.707 88.6065V80.6565" stroke="#001871" stroke-width="6" stroke-linecap="round"/>
<path d="M173.779 97.9266C174.678 104.566 180.212 109.767 186.946 110.075C192.612 110.334 198.369 110.469 204.707 110.469C211.046 110.469 216.802 110.334 222.469 110.075C229.203 109.767 234.737 104.566 235.636 97.9266C236.223 93.5939 236.707 89.1534 236.707 84.6314C236.707 80.1095 236.223 75.669 235.636 71.3363C234.737 64.6968 229.203 59.4955 222.469 59.1878C216.802 58.929 211.046 58.7939 204.707 58.7939C198.369 58.7939 192.612 58.929 186.946 59.1878C180.212 59.4955 174.678 64.6968 173.779 71.3363C173.192 75.669 172.707 80.1095 172.707 84.6314C172.707 89.1534 173.192 93.5939 173.779 97.9266Z" stroke="#001871" stroke-width="6"/>
<path d="M186.707 58.794V48.8565C186.707 38.9775 194.766 30.969 204.707 30.969C214.649 30.969 222.707 38.9775 222.707 48.8565V58.794" stroke="#001871" stroke-width="6" stroke-linecap="round" stroke-linejoin="round"/>
<circle cx="204.707" cy="78.2395" r="4.85498" fill="#001871"/>
</svg>
