<svg width="178" height="178" viewBox="0 0 178 178" fill="none" xmlns="http://www.w3.org/2000/svg">
<path d="M73.6989 147.311L73.6987 147.311L73.0844 147.295C65.4226 147.106 58.7141 146.941 53.2235 145.996C47.187 144.957 41.729 142.851 37.0682 138.223C32.4351 133.623 30.288 128.273 29.2411 122.315C28.2986 116.95 28.1576 110.438 27.9984 103.086C27.9939 102.879 27.9894 102.671 27.9849 102.463C27.8125 94.5329 27.9027 86.6816 28.2549 78.6789L28.2549 78.6789C28.2688 78.3631 28.2816 78.0408 28.2946 77.7128C28.4461 73.8874 28.6286 69.2787 30.996 65.1383L30.9961 65.1382C33.3561 61.0108 37.3127 58.4447 40.6395 56.2872C40.9315 56.0978 41.2187 55.9115 41.4995 55.7276L61.056 42.9219C61.056 42.9219 61.056 42.9219 61.056 42.9219C61.1839 42.8382 61.3113 42.7547 61.4383 42.6715C66.6784 39.2399 71.2016 36.2778 75.2064 34.2309C79.5055 32.0335 83.9196 30.5001 89 30.5001C94.0804 30.5001 98.4945 32.0336 102.794 34.2309C106.798 36.2776 111.321 39.2393 116.56 42.6703L116.944 42.9218L116.944 42.9219L136.5 55.7276C136.781 55.9114 137.068 56.0975 137.36 56.2869C140.687 58.4446 144.643 61.0105 147.004 65.1378L147.004 65.1379C149.372 69.2787 149.554 73.8878 149.705 77.7132C149.718 78.041 149.731 78.3632 149.745 78.6787L73.6989 147.311ZM73.6989 147.311C83.9294 147.563 94.0706 147.563 104.301 147.311L104.301 147.311M73.6989 147.311L104.301 147.311M104.301 147.311L104.916 147.295C112.577 147.106 119.286 146.941 124.776 145.996C130.813 144.957 136.271 142.851 140.932 138.223C145.565 133.623 147.712 128.273 148.759 122.315C149.701 116.951 149.842 110.44 150.002 103.09C150.006 102.882 150.011 102.673 150.015 102.463L150.015 102.463M104.301 147.311L150.015 102.463M150.015 102.463C150.188 94.5329 150.097 86.6818 149.745 78.6793L150.015 102.463Z" fill="#FF9D43" stroke="#FFDFC1" stroke-width="18.2" stroke-linejoin="round"/>
<path d="M37.0828 102.265C37.4257 118.038 37.5972 125.925 43.4798 131.765C49.3624 137.606 57.5495 137.808 73.9237 138.213C84.0043 138.462 93.9956 138.462 104.076 138.213C120.451 137.808 128.637 137.606 134.52 131.765C140.403 125.925 140.574 118.038 140.917 102.265C141.085 94.5376 140.997 86.8858 140.654 79.079C140.44 74.2302 140.334 71.8058 139.104 69.6553C137.874 67.5048 135.755 66.1167 131.515 63.3407L111.959 50.535C100.826 43.2451 95.2597 39.6001 89 39.6001C82.7402 39.6001 77.174 43.245 66.0411 50.535L46.4846 63.3407C42.2452 66.1167 40.1255 67.5048 38.8959 69.6553C37.6662 71.8058 37.5595 74.2303 37.3461 79.079C37.0025 86.8858 36.9148 94.5376 37.0828 102.265Z" fill="#FF9D43" stroke="#001871" stroke-width="7.8" stroke-linejoin="round"/>
<path d="M37 125.4L72.9477 100.911C86.0812 91.963 91.9188 91.963 105.052 100.911L141 125.4" stroke="#001871" stroke-width="7.8" stroke-linejoin="round"/>
<path d="M141 76L118.82 92.1574C113.442 96.0751 109.022 99.4 102 99.4M37 76L59.18 92.1574C64.5577 96.0751 68.978 99.4 76 99.4" stroke="#001871" stroke-width="7.8" stroke-linejoin="round"/>
</svg>
