<svg width="301" height="300" viewBox="0 0 301 300" fill="none" xmlns="http://www.w3.org/2000/svg">
<path d="M45.6863 265.528L41.7378 259.808L45.6863 265.528L62.6803 253.795C63.8411 252.994 65.2183 252.564 66.6288 252.564H88.3049H140.321H230.454C241.969 252.564 251.303 243.23 251.303 231.715V182.672C251.303 171.157 241.969 161.822 230.454 161.822H50.1883C38.6735 161.822 29.3389 171.157 29.3389 182.672V256.949C29.3389 265.352 38.7712 270.302 45.6863 265.528Z" fill="#FF9D43" stroke="#FFDFC1" stroke-width="13.8996"/>
<path d="M36.2887 182.672C36.2887 174.995 42.5118 168.772 50.1883 168.772H230.454C238.13 168.772 244.353 174.995 244.353 182.672V231.715C244.353 239.392 238.13 245.615 230.454 245.615H140.321H88.3049H66.6288C63.8077 245.615 61.0534 246.473 58.7318 248.076L41.7378 259.808C39.4328 261.4 36.2887 259.75 36.2887 256.949V182.672Z" stroke="#001871" stroke-width="6.94981"/>
<path d="M50.2746 202.442V199.709L59.958 191.439L62.5526 192.134H50.3441V189.261H64.0352V191.995L54.3518 200.265L52.1279 199.593H64.0815V202.442H50.2746ZM65.9783 184.605H69.847V193.454L69.3142 194.496V197.369L69.847 198.435V202.442H65.9783V184.605ZM68.4802 195.863C68.7273 194.458 69.1829 193.238 69.847 192.203C70.5111 191.153 71.3373 190.342 72.3258 189.771C73.3142 189.199 74.4261 188.913 75.6617 188.913C76.9435 188.913 78.0787 189.207 79.0671 189.794C80.0555 190.365 80.8277 191.176 81.3837 192.226C81.9397 193.261 82.2176 194.473 82.2176 195.863C82.2176 197.238 81.9397 198.45 81.3837 199.5C80.8277 200.535 80.0555 201.346 79.0671 201.933C78.0787 202.504 76.9435 202.79 75.6617 202.79C74.4261 202.79 73.3142 202.504 72.3258 201.933C71.3373 201.361 70.5111 200.558 69.847 199.523C69.1983 198.473 68.7427 197.253 68.4802 195.863ZM78.2794 195.863C78.2794 195.091 78.1173 194.411 77.7929 193.825C77.4841 193.222 77.0516 192.759 76.4956 192.435C75.9397 192.095 75.3065 191.925 74.596 191.925C73.8702 191.925 73.1829 192.095 72.5342 192.435C71.8856 192.759 71.3142 193.222 70.82 193.825C70.3412 194.411 69.9628 195.091 69.6848 195.863C69.9628 196.635 70.3412 197.315 70.82 197.902C71.3142 198.489 71.8856 198.952 72.5342 199.292C73.1829 199.616 73.8702 199.778 74.596 199.778C75.3065 199.778 75.9397 199.616 76.4956 199.292C77.0516 198.952 77.4841 198.489 77.7929 197.902C78.1173 197.315 78.2794 196.635 78.2794 195.863ZM98.1751 185.068V202.442H94.2832V186.759H95.6268L86.1287 197.276L86.0824 195.979H101.14V198.991H83.1403V196.211L93.1944 185.068H98.1751ZM104.315 185.068H117.473V188.079H105.519L107.118 187.269L106.145 194.056H105.102C105.458 193.5 105.929 192.983 106.516 192.504C107.118 192.025 107.851 191.639 108.716 191.346C109.581 191.052 110.577 190.906 111.705 190.906C113.203 190.906 114.485 191.161 115.55 191.67C116.616 192.164 117.427 192.852 117.983 193.732C118.554 194.597 118.84 195.585 118.84 196.697C118.84 197.886 118.508 198.937 117.844 199.848C117.18 200.759 116.238 201.477 115.017 202.002C113.797 202.527 112.346 202.79 110.662 202.79C108.994 202.79 107.543 202.55 106.307 202.072C105.072 201.578 104.099 200.906 103.388 200.056C102.693 199.207 102.284 198.265 102.16 197.23H106.075C106.261 197.987 106.747 198.589 107.535 199.037C108.322 199.469 109.365 199.686 110.662 199.686C111.527 199.686 112.276 199.57 112.909 199.338C113.543 199.091 114.029 198.744 114.369 198.296C114.724 197.848 114.902 197.315 114.902 196.697C114.902 196.095 114.747 195.57 114.438 195.122C114.145 194.659 113.697 194.303 113.095 194.056C112.508 193.809 111.759 193.686 110.848 193.686C110.106 193.686 109.434 193.771 108.832 193.94C108.245 194.11 107.736 194.334 107.303 194.612C106.886 194.875 106.531 195.153 106.238 195.446H102.878L104.315 185.068ZM132.902 202.442L132.346 197.462L133.087 195.886L132.369 193.964L133.412 184.605H137.419L136.145 195.585L136.91 202.442H132.902ZM133.852 195.863C133.605 197.253 133.149 198.473 132.485 199.523C131.836 200.558 131.01 201.361 130.006 201.933C129.018 202.504 127.906 202.79 126.67 202.79C125.388 202.79 124.253 202.504 123.265 201.933C122.277 201.346 121.504 200.535 120.948 199.5C120.408 198.45 120.138 197.238 120.138 195.863C120.138 194.473 120.408 193.261 120.948 192.226C121.504 191.176 122.277 190.365 123.265 189.794C124.253 189.207 125.388 188.913 126.67 188.913C127.906 188.913 129.018 189.199 130.006 189.771C131.01 190.342 131.844 191.153 132.508 192.203C133.172 193.238 133.62 194.458 133.852 195.863ZM124.053 195.863C124.053 196.635 124.207 197.315 124.516 197.902C124.84 198.489 125.28 198.952 125.836 199.292C126.392 199.616 127.033 199.778 127.759 199.778C128.485 199.778 129.165 199.616 129.798 199.292C130.446 198.952 131.018 198.489 131.512 197.902C132.006 197.315 132.392 196.635 132.67 195.863C132.392 195.091 132.006 194.411 131.512 193.825C131.018 193.222 130.446 192.759 129.798 192.435C129.165 192.095 128.485 191.925 127.759 191.925C127.033 191.925 126.392 192.095 125.836 192.435C125.28 192.759 124.84 193.222 124.516 193.825C124.207 194.411 124.053 195.091 124.053 195.863ZM142.878 185.068H146.005L143.967 202.442H140.839L142.878 185.068ZM150.685 185.068H153.812L151.773 202.442H148.646L150.685 185.068ZM139.148 189.562H156.059V192.272H139.148V189.562ZM138.592 195.284H155.503V197.995H138.592V195.284ZM161.522 184.697H163.977L163.838 188.311L167.244 187.014L167.985 189.354L164.487 190.373L166.827 193.245L164.834 194.682L162.749 191.647L160.664 194.682L158.672 193.245L160.989 190.373L157.514 189.354L158.255 187.014L161.684 188.311L161.522 184.697ZM171.707 185.068C173.004 186.643 173.969 188.249 174.602 189.886C175.251 191.508 175.575 193.207 175.575 194.983C175.575 196.744 175.251 198.435 174.602 200.056C173.969 201.678 173.004 203.284 171.707 204.875H168.649C169.637 203.13 170.371 201.454 170.849 199.848C171.328 198.226 171.568 196.605 171.568 194.983C171.568 193.346 171.328 191.717 170.849 190.095C170.371 188.473 169.637 186.798 168.649 185.068H171.707ZM181.791 200.728V187.755H184.664V200.728H181.791ZM176.741 195.678V192.805H189.714V195.678H176.741ZM198.867 202.79C197.308 202.79 195.91 202.504 194.674 201.933C193.454 201.346 192.489 200.527 191.779 199.477C191.084 198.427 190.736 197.207 190.736 195.817C190.736 194.442 191.068 193.238 191.732 192.203C192.412 191.168 193.338 190.365 194.512 189.794C195.686 189.207 197.022 188.913 198.52 188.913C200.049 188.913 201.362 189.253 202.458 189.933C203.555 190.597 204.396 191.539 204.983 192.759C205.586 193.979 205.887 195.415 205.887 197.068H193.84V194.496H203.802L202.296 195.423C202.234 194.651 202.041 193.995 201.717 193.454C201.408 192.913 200.983 192.496 200.443 192.203C199.902 191.91 199.269 191.763 198.543 191.763C197.755 191.763 197.068 191.925 196.481 192.249C195.91 192.558 195.462 192.998 195.138 193.57C194.829 194.126 194.674 194.782 194.674 195.539C194.674 196.45 194.875 197.23 195.277 197.879C195.678 198.527 196.265 199.022 197.037 199.361C197.81 199.701 198.744 199.871 199.84 199.871C200.829 199.871 201.825 199.732 202.829 199.454C203.833 199.161 204.736 198.751 205.539 198.226V200.821C204.674 201.439 203.663 201.925 202.504 202.28C201.362 202.62 200.149 202.79 198.867 202.79ZM207.709 189.122L209.632 189.493L211.578 189.122V202.442H207.709V189.122ZM209.632 187.755C208.937 187.755 208.366 187.578 207.918 187.222C207.486 186.852 207.269 186.365 207.269 185.763C207.269 185.145 207.486 184.659 207.918 184.303C208.366 183.933 208.937 183.747 209.632 183.747C210.343 183.747 210.914 183.933 211.347 184.303C211.779 184.659 211.995 185.145 211.995 185.763C211.995 186.365 211.779 186.852 211.347 187.222C210.914 187.578 210.343 187.755 209.632 187.755ZM213.431 189.261H217.299L218.133 194.288V202.442H214.265V193.709L213.431 189.261ZM223.16 188.913C224.411 188.913 225.477 189.168 226.357 189.678C227.238 190.172 227.909 190.883 228.373 191.809C228.836 192.736 229.068 193.84 229.068 195.122V202.442H225.199V195.701C225.199 194.512 224.913 193.616 224.342 193.014C223.77 192.396 222.937 192.087 221.84 192.087C221.099 192.087 220.442 192.257 219.871 192.597C219.315 192.921 218.882 193.377 218.574 193.964C218.28 194.55 218.133 195.253 218.133 196.072L216.859 195.4C217.014 194.01 217.384 192.836 217.971 191.879C218.558 190.921 219.299 190.188 220.195 189.678C221.091 189.168 222.079 188.913 223.16 188.913ZM65.2862 227.296C65.2862 228.238 65.0082 229.049 64.4522 229.728C63.9117 230.408 63.1009 230.925 62.0198 231.28C60.9387 231.62 59.6182 231.79 58.0584 231.79C56.4522 231.79 55.0545 231.597 53.8653 231.211C52.6761 230.809 51.7495 230.245 51.0854 229.52C50.4213 228.794 50.0661 227.952 50.0198 226.995H53.958C54.0507 227.427 54.2823 227.805 54.653 228.13C55.0236 228.439 55.5024 228.678 56.0893 228.848C56.6916 229.018 57.3866 229.103 58.1742 229.103C59.2707 229.103 60.097 228.979 60.653 228.732C61.2244 228.485 61.5101 228.114 61.5101 227.62C61.5101 227.265 61.3093 226.995 60.9078 226.809C60.5217 226.624 59.8036 226.485 58.7534 226.392L56.2978 226.207C54.8306 226.083 53.6646 225.836 52.7997 225.466C51.9348 225.095 51.3171 224.632 50.9464 224.076C50.5912 223.504 50.4136 222.879 50.4136 222.199C50.4136 221.257 50.707 220.469 51.2939 219.836C51.8808 219.203 52.6993 218.724 53.7495 218.4C54.8151 218.076 56.0429 217.913 57.4329 217.913C58.8537 217.913 60.1202 218.106 61.2321 218.493C62.3441 218.879 63.2321 219.411 63.8962 220.091C64.5758 220.771 64.9619 221.558 65.0545 222.454H61.1163C61.0545 222.13 60.8769 221.828 60.5835 221.55C60.3055 221.257 59.8962 221.018 59.3557 220.832C58.8151 220.647 58.1124 220.554 57.2476 220.554C56.2746 220.554 55.5256 220.67 55.0005 220.902C54.4754 221.118 54.2128 221.45 54.2128 221.898C54.2128 222.207 54.375 222.462 54.6993 222.662C55.0236 222.848 55.6259 222.979 56.5063 223.056L59.7032 223.311C61.124 223.435 62.2437 223.674 63.0622 224.029C63.8808 224.369 64.4522 224.817 64.7765 225.373C65.1163 225.929 65.2862 226.57 65.2862 227.296ZM70.9329 228.245L69.8441 227.852L77.6742 218.261H81.8904L70.5854 231.442H67.0642V213.605H70.9329V228.245ZM73.9213 224.979L76.7707 222.778L82.2611 231.442H77.8364L73.9213 224.979ZM94.5975 231.442L94.0415 226.624L94.667 224.863L94.0415 223.126L94.5975 218.261H98.6053L97.8408 224.863L98.6053 231.442H94.5975ZM95.6168 224.863C95.3697 226.253 94.9141 227.473 94.25 228.523C93.6014 229.558 92.7751 230.361 91.7713 230.933C90.7829 231.504 89.6709 231.79 88.4354 231.79C87.1535 231.79 86.0184 231.504 85.03 230.933C84.0415 230.346 83.2693 229.535 82.7134 228.5C82.1728 227.45 81.9026 226.238 81.9026 224.863C81.9026 223.473 82.1728 222.261 82.7134 221.226C83.2693 220.176 84.0415 219.365 85.03 218.794C86.0184 218.207 87.1535 217.913 88.4354 217.913C89.6709 217.913 90.7829 218.199 91.7713 218.771C92.7751 219.342 93.6091 220.153 94.2732 221.203C94.9373 222.238 95.3852 223.458 95.6168 224.863ZM85.8176 224.863C85.8176 225.635 85.9721 226.315 86.2809 226.902C86.6053 227.489 87.0454 227.952 87.6014 228.292C88.1574 228.616 88.7983 228.778 89.5242 228.778C90.25 228.778 90.9296 228.616 91.5628 228.292C92.2114 227.952 92.7829 227.489 93.2771 226.902C93.7713 226.315 94.1574 225.635 94.4354 224.863C94.1574 224.091 93.7713 223.411 93.2771 222.825C92.7829 222.222 92.2114 221.759 91.5628 221.435C90.9296 221.095 90.25 220.925 89.5242 220.925C88.7983 220.925 88.1574 221.095 87.6014 221.435C87.0454 221.759 86.6053 222.222 86.2809 222.825C85.9721 223.411 85.8176 224.091 85.8176 224.863ZM100.752 218.122L102.675 218.493L104.621 218.122V235.265H100.752V218.122ZM102.675 216.755C101.98 216.755 101.408 216.578 100.96 216.222C100.528 215.852 100.312 215.365 100.312 214.763C100.312 214.145 100.528 213.659 100.96 213.303C101.408 212.933 101.98 212.747 102.675 212.747C103.385 212.747 103.957 212.933 104.389 213.303C104.821 213.659 105.038 214.145 105.038 214.763C105.038 215.365 104.821 215.852 104.389 216.222C103.957 216.578 103.385 216.755 102.675 216.755ZM107.122 214.068H111.153L110.504 225.72H107.77L107.122 214.068ZM109.137 231.651C108.473 231.651 107.933 231.458 107.516 231.072C107.099 230.67 106.89 230.161 106.89 229.543C106.89 228.91 107.099 228.4 107.516 228.014C107.933 227.612 108.473 227.411 109.137 227.411C109.801 227.411 110.342 227.612 110.759 228.014C111.176 228.4 111.384 228.91 111.384 229.543C111.384 230.161 111.176 230.67 110.759 231.072C110.342 231.458 109.801 231.651 109.137 231.651ZM118.676 224.145C117.502 224.145 116.475 223.937 115.595 223.52C114.715 223.087 114.02 222.485 113.51 221.713C113.016 220.925 112.769 220.022 112.769 219.002C112.769 217.983 113.016 217.087 113.51 216.315C114.02 215.543 114.715 214.94 115.595 214.508C116.491 214.076 117.518 213.859 118.676 213.859C119.85 213.859 120.877 214.076 121.757 214.508C122.637 214.94 123.325 215.543 123.819 216.315C124.313 217.087 124.56 217.983 124.56 219.002C124.56 220.022 124.313 220.925 123.819 221.713C123.325 222.485 122.637 223.087 121.757 223.52C120.877 223.937 119.85 224.145 118.676 224.145ZM118.676 221.828C119.541 221.828 120.228 221.581 120.738 221.087C121.248 220.578 121.502 219.883 121.502 219.002C121.502 218.122 121.248 217.435 120.738 216.94C120.244 216.431 119.556 216.176 118.676 216.176C117.796 216.176 117.101 216.431 116.591 216.94C116.097 217.435 115.85 218.122 115.85 219.002C115.85 219.883 116.097 220.578 116.591 221.087C117.101 221.581 117.796 221.828 118.676 221.828ZM134.73 231.767C133.572 231.767 132.545 231.558 131.649 231.141C130.769 230.709 130.081 230.106 129.587 229.334C129.093 228.547 128.846 227.643 128.846 226.624C128.846 225.605 129.093 224.709 129.587 223.937C130.081 223.164 130.769 222.562 131.649 222.13C132.545 221.697 133.58 221.481 134.753 221.481C135.927 221.481 136.954 221.697 137.834 222.13C138.715 222.562 139.402 223.164 139.896 223.937C140.39 224.709 140.637 225.605 140.637 226.624C140.637 227.643 140.39 228.547 139.896 229.334C139.402 230.106 138.715 230.709 137.834 231.141C136.954 231.558 135.919 231.767 134.73 231.767ZM134.73 229.45C135.61 229.45 136.298 229.203 136.792 228.709C137.302 228.199 137.556 227.504 137.556 226.624C137.556 225.759 137.309 225.072 136.815 224.562C136.321 224.052 135.634 223.798 134.753 223.798C133.873 223.798 133.178 224.052 132.668 224.562C132.174 225.072 131.927 225.759 131.927 226.624C131.927 227.504 132.174 228.199 132.668 228.709C133.178 229.203 133.865 229.45 134.73 229.45ZM129.981 214.068H132.9L123.448 231.442H120.529L129.981 214.068ZM155.949 223.821C155.733 225.319 155.223 226.516 154.42 227.411C153.633 228.292 152.59 228.732 151.293 228.732C150.397 228.732 149.602 228.531 148.907 228.13C148.227 227.713 147.687 227.134 147.285 226.392C146.899 225.651 146.706 224.794 146.706 223.821C146.706 222.848 146.899 221.991 147.285 221.249C147.671 220.508 148.212 219.937 148.907 219.535C149.602 219.118 150.397 218.91 151.293 218.91C152.189 218.91 152.961 219.118 153.609 219.535C154.258 219.952 154.775 220.531 155.161 221.272C155.563 221.998 155.826 222.848 155.949 223.821ZM150.181 223.821C150.181 224.5 150.382 225.049 150.783 225.466C151.2 225.883 151.725 226.091 152.358 226.091C153.007 226.091 153.594 225.883 154.119 225.466C154.66 225.033 155.046 224.485 155.277 223.821C155.046 223.157 154.66 222.616 154.119 222.199C153.594 221.767 153.007 221.55 152.358 221.55C151.926 221.55 151.548 221.651 151.223 221.852C150.899 222.037 150.644 222.3 150.459 222.639C150.273 222.979 150.181 223.373 150.181 223.821ZM163.895 222.523C163.895 223.728 163.633 224.771 163.107 225.651C162.582 226.531 161.841 227.218 160.883 227.713C159.941 228.207 158.829 228.454 157.548 228.454H155.764L154.999 225.118L155.439 223.821L154.976 222.547L155.532 219.188H159.1L158.428 223.821L159.262 228.014L157.965 226.786C158.69 226.786 159.316 226.608 159.841 226.253C160.382 225.898 160.799 225.404 161.092 224.771C161.385 224.137 161.532 223.396 161.532 222.547C161.532 221.234 161.185 220.106 160.49 219.164C159.795 218.207 158.822 217.466 157.571 216.94C156.32 216.415 154.853 216.153 153.169 216.153C151.331 216.153 149.725 216.477 148.351 217.126C146.992 217.774 145.934 218.693 145.177 219.883C144.436 221.056 144.065 222.454 144.065 224.076C144.065 225.574 144.436 226.879 145.177 227.991C145.918 229.087 146.961 229.937 148.304 230.539C149.663 231.141 151.254 231.442 153.077 231.442C153.941 231.442 154.829 231.381 155.741 231.257C156.667 231.118 157.54 230.925 158.358 230.678C159.177 230.431 159.887 230.145 160.49 229.821V232.068C159.872 232.361 159.138 232.616 158.289 232.832C157.455 233.064 156.575 233.234 155.648 233.342C154.737 233.466 153.849 233.527 152.984 233.527C150.698 233.527 148.698 233.134 146.984 232.346C145.27 231.574 143.941 230.485 142.999 229.079C142.057 227.659 141.586 225.998 141.586 224.099C141.586 222.585 141.856 221.218 142.397 219.998C142.938 218.763 143.717 217.705 144.737 216.825C145.756 215.944 146.976 215.265 148.397 214.786C149.818 214.307 151.409 214.068 153.169 214.068C155.331 214.068 157.208 214.423 158.799 215.134C160.405 215.828 161.656 216.809 162.551 218.076C163.447 219.342 163.895 220.825 163.895 222.523ZM173.267 229.659L171.877 229.635L176.858 218.261H180.981L174.68 231.442H170.302L164.024 218.261H168.286L173.267 229.659Z" fill="#001871"/>
<path d="M60.0925 123.652C81.0551 135.447 107.61 128.016 119.405 107.053C131.2 86.0902 123.769 59.5349 102.806 47.7399C81.8432 35.9449 55.2879 43.3768 43.4929 64.3395C31.6979 85.3021 39.1298 111.857 60.0925 123.652Z" fill="#FF9D43" stroke="#FFDFC1" stroke-width="12.973"/>
<path d="M63.2733 118C81.1138 128.038 103.714 121.713 113.752 103.873C123.791 86.032 117.466 63.4317 99.6251 53.3934C81.7845 43.3552 59.1843 49.6802 49.146 67.5207C39.1077 85.3613 45.4327 107.962 63.2733 118Z" stroke="#001871" stroke-width="5.55985"/>
<path d="M68.5277 78.4263C57.6221 97.8082 63.2731 118 63.2731 118C63.2731 118 83.4647 112.349 94.3703 92.967C105.276 73.5851 99.6249 53.3934 99.6249 53.3934C99.6249 53.3934 79.4332 59.0443 68.5277 78.4263Z" stroke="#001871" stroke-width="5.55985" stroke-linejoin="round"/>
<path d="M105.069 111.746L46.9232 79.0293" stroke="#001871" stroke-width="5.55985" stroke-linecap="round" stroke-linejoin="round"/>
<path d="M115.975 92.3636L57.8292 59.647" stroke="#001871" stroke-width="5.55985" stroke-linecap="round" stroke-linejoin="round"/>
<path d="M205.615 117.901C205.615 87.8341 181.241 63.4605 151.175 63.4605C121.109 63.4605 96.7349 87.8342 96.7349 117.901C96.7349 147.967 121.109 172.341 151.175 172.341C181.241 172.341 205.615 147.967 205.615 117.901Z" fill="#FF9D43" stroke="#FFDFC1" stroke-width="16.2162"/>
<path d="M197.507 117.901C197.507 92.3122 176.763 71.5686 151.175 71.5686C125.587 71.5686 104.843 92.3122 104.843 117.901C104.843 143.489 125.587 164.233 151.175 164.233C176.763 164.233 197.507 143.489 197.507 117.901Z" fill="#FF9D43" stroke="#001871" stroke-width="6.94981"/>
<path d="M132.642 120.217L144.225 131.8L169.708 104.001" stroke="#001871" stroke-width="6.94981" stroke-linecap="round" stroke-linejoin="round"/>
<path d="M204.016 141.466C192.501 141.466 183.166 150.801 183.166 162.315V185.696C183.166 197.211 192.501 206.545 204.016 206.545H230.073H246.513C247.674 206.545 248.816 206.836 249.836 207.391L259.859 212.846C267.577 217.047 276.979 211.46 276.979 202.673V162.315C276.979 150.801 267.644 141.466 256.13 141.466H204.016Z" fill="#FF9D43" stroke="#FFDFC1" stroke-width="13.8996"/>
<path d="M201.74 164.646H205.679V182.021H201.74V164.646ZM215.64 164.646H219.578V182.021H215.64V164.646ZM203.895 171.503H217.377V174.955H203.895V171.503ZM229.61 182.368C228.05 182.368 226.652 182.082 225.417 181.511C224.197 180.924 223.232 180.105 222.521 179.055C221.826 178.005 221.479 176.785 221.479 175.395C221.479 174.021 221.811 172.816 222.475 171.781C223.154 170.746 224.081 169.943 225.255 169.372C226.428 168.785 227.764 168.492 229.262 168.492C230.791 168.492 232.104 168.831 233.201 169.511C234.297 170.175 235.139 171.117 235.726 172.337C236.328 173.557 236.629 174.993 236.629 176.646H224.583V174.075H234.544L233.039 175.001C232.977 174.229 232.784 173.573 232.459 173.032C232.15 172.492 231.726 172.075 231.185 171.781C230.645 171.488 230.012 171.341 229.286 171.341C228.498 171.341 227.811 171.503 227.224 171.827C226.652 172.136 226.205 172.576 225.88 173.148C225.571 173.704 225.417 174.36 225.417 175.117C225.417 176.028 225.618 176.808 226.019 177.457C226.421 178.105 227.008 178.6 227.78 178.939C228.552 179.279 229.486 179.449 230.583 179.449C231.571 179.449 232.567 179.31 233.571 179.032C234.575 178.739 235.479 178.329 236.282 177.804V180.399C235.417 181.017 234.405 181.503 233.247 181.858C232.104 182.198 230.892 182.368 229.61 182.368ZM241.435 186.19C240.57 186.19 239.79 186.082 239.095 185.866C238.4 185.65 237.744 185.333 237.126 184.916V182.136C237.775 182.553 238.393 182.854 238.98 183.04C239.566 183.225 240.215 183.318 240.925 183.318C241.559 183.318 242.122 183.171 242.617 182.878C243.111 182.6 243.52 182.098 243.844 181.372L249.335 168.839H253.435L246.856 182.623C246.454 183.488 245.968 184.183 245.397 184.708C244.825 185.233 244.2 185.611 243.52 185.843C242.856 186.075 242.161 186.19 241.435 186.19ZM242.269 181.187L236.454 168.839H240.717L246.045 181.187H242.269ZM254.572 164.646H258.603L257.955 176.298H255.221L254.572 164.646ZM256.588 182.229C255.924 182.229 255.383 182.036 254.966 181.65C254.549 181.248 254.341 180.739 254.341 180.121C254.341 179.488 254.549 178.978 254.966 178.592C255.383 178.19 255.924 177.99 256.588 177.99C257.252 177.99 257.793 178.19 258.21 178.592C258.626 178.978 258.835 179.488 258.835 180.121C258.835 180.739 258.626 181.248 258.21 181.65C257.793 182.036 257.252 182.229 256.588 182.229Z" fill="#001871"/>
<path d="M190.116 162.315C190.116 154.639 196.339 148.416 204.016 148.416H256.13C263.806 148.416 270.029 154.639 270.029 162.315V202.673C270.029 206.188 266.268 208.422 263.181 206.742L253.158 201.287C251.119 200.177 248.835 199.595 246.513 199.595H230.073H204.016C196.339 199.595 190.116 193.372 190.116 185.696V162.315Z" stroke="#001871" stroke-width="6.94981"/>
</svg>
